<svg xmlns="http://www.w3.org/2000/svg" width="360" height="760" viewBox="0 0 360 760" font-family="-apple-system, system-ui, 'Segoe UI', sans-serif">
  <defs>
    <linearGradient id="bg2" x1="0" y1="0" x2="0" y2="1">
      <stop offset="0%" stop-color="#16171B"/>
      <stop offset="100%" stop-color="#0F1014"/>
    </linearGradient>
  </defs>
  <rect width="360" height="760" fill="url(#bg2)"/>

  <!-- Status bar -->
  <text x="22" y="22" fill="#E6E6EA" font-size="12" font-weight="600">9:41</text>

  <!-- App bar with method/status/path -->
  <g transform="translate(0, 40)">
    <rect x="14" y="14" width="20" height="26" rx="4" fill="transparent"/>
    <path d="M 24 20 l -6 6 l 6 6" stroke="#F2F2F4" stroke-width="2" fill="none" stroke-linecap="round" stroke-linejoin="round"/>
    <rect x="38" y="14" width="50" height="22" rx="6" fill="rgba(59,130,246,0.18)"/>
    <text x="63" y="29" fill="#3B82F6" font-size="11" font-weight="700" text-anchor="middle">POST</text>
    <rect x="94" y="14" width="36" height="22" rx="6" fill="rgba(34,197,94,0.16)" stroke="rgba(34,197,94,0.4)"/>
    <text x="112" y="29" fill="#22C55E" font-size="12" font-weight="700" text-anchor="middle">201</text>
    <text x="138" y="32" fill="#F2F2F4" font-size="14" font-weight="600">/api/v1/orders</text>
    <g transform="translate(316, 18)">
      <rect width="20" height="20" rx="4" fill="transparent" stroke="#A8AAB5" stroke-width="1.5"/>
      <rect x="4" y="4" width="20" height="20" rx="4" fill="#16171B" stroke="#A8AAB5" stroke-width="1.5"/>
    </g>
  </g>

  <!-- TabBar -->
  <g transform="translate(0, 100)">
    <line x1="0" y1="40" x2="360" y2="40" stroke="#22232A"/>
    <text x="50" y="26" fill="#5B6BFF" font-size="13" font-weight="700" text-anchor="middle">Overview</text>
    <line x1="20" y1="40" x2="80" y2="40" stroke="#5B6BFF" stroke-width="2.5"/>
    <text x="135" y="26" fill="#7C7E8A" font-size="13" text-anchor="middle">Request</text>
    <text x="220" y="26" fill="#7C7E8A" font-size="13" text-anchor="middle">Response</text>
    <text x="305" y="26" fill="#7C7E8A" font-size="13" text-anchor="middle">cURL</text>
  </g>

  <!-- Section header -->
  <text x="20" y="170" fill="#5B6BFF" font-size="11" font-weight="700" letter-spacing="1">SUMMARY</text>

  <!-- Summary card -->
  <g transform="translate(12, 184)">
    <rect width="336" height="328" rx="14" fill="#1B1C22"/>
    <!-- URL -->
    <text x="14" y="26" fill="#7C7E8A" font-size="11" font-weight="600">URL</text>
    <text x="150" y="26" fill="#E6E6EA" font-size="12" font-family="ui-monospace, 'JetBrains Mono', monospace">api.example.com/orders</text>
    <line x1="14" y1="38" x2="322" y2="38" stroke="#22232A"/>
    <!-- Method -->
    <text x="14" y="58" fill="#7C7E8A" font-size="11" font-weight="600">Method</text>
    <text x="150" y="58" fill="#E6E6EA" font-size="12" font-family="ui-monospace, monospace">POST</text>
    <line x1="14" y1="70" x2="322" y2="70" stroke="#22232A"/>
    <!-- Client -->
    <text x="14" y="90" fill="#7C7E8A" font-size="11" font-weight="600">Client</text>
    <text x="150" y="90" fill="#E6E6EA" font-size="12" font-family="ui-monospace, monospace">Dio</text>
    <line x1="14" y1="102" x2="322" y2="102" stroke="#22232A"/>
    <!-- Status -->
    <text x="14" y="122" fill="#7C7E8A" font-size="11" font-weight="600">Status</text>
    <text x="150" y="122" fill="#22C55E" font-size="12" font-family="ui-monospace, monospace" font-weight="700">201</text>
    <line x1="14" y1="134" x2="322" y2="134" stroke="#22232A"/>
    <!-- Started -->
    <text x="14" y="154" fill="#7C7E8A" font-size="11" font-weight="600">Started</text>
    <text x="150" y="154" fill="#E6E6EA" font-size="12" font-family="ui-monospace, monospace">2026-04-28 10:42:09.184</text>
    <line x1="14" y1="166" x2="322" y2="166" stroke="#22232A"/>
    <!-- Duration -->
    <text x="14" y="186" fill="#7C7E8A" font-size="11" font-weight="600">Duration</text>
    <text x="150" y="186" fill="#E6E6EA" font-size="12" font-family="ui-monospace, monospace">287ms</text>
    <line x1="14" y1="198" x2="322" y2="198" stroke="#22232A"/>
    <!-- Request size -->
    <text x="14" y="218" fill="#7C7E8A" font-size="11" font-weight="600">Request Size</text>
    <text x="150" y="218" fill="#E6E6EA" font-size="12" font-family="ui-monospace, monospace">432 B</text>
    <line x1="14" y1="230" x2="322" y2="230" stroke="#22232A"/>
    <!-- Response size -->
    <text x="14" y="250" fill="#7C7E8A" font-size="11" font-weight="600">Response Size</text>
    <text x="150" y="250" fill="#E6E6EA" font-size="12" font-family="ui-monospace, monospace">1.1 KB</text>
    <line x1="14" y1="262" x2="322" y2="262" stroke="#22232A"/>
    <!-- TLS -->
    <text x="14" y="282" fill="#7C7E8A" font-size="11" font-weight="600">Secure</text>
    <text x="150" y="282" fill="#22C55E" font-size="12" font-family="ui-monospace, monospace">TLS</text>
  </g>

  <!-- Section: Response body preview (Request tab simulated below) -->
  <text x="20" y="544" fill="#5B6BFF" font-size="11" font-weight="700" letter-spacing="1">RESPONSE BODY (PREVIEW)</text>

  <g transform="translate(12, 558)">
    <rect width="336" height="180" rx="14" fill="#1B1C22"/>
    <text x="14" y="26" fill="#E6E6EA" font-size="12" font-family="ui-monospace, 'JetBrains Mono', monospace">{</text>
    <text x="26" y="44" fill="#5B6BFF" font-size="12" font-family="ui-monospace, monospace" font-weight="700">"id"</text>
    <text x="58" y="44" fill="#A8AAB5" font-size="12" font-family="ui-monospace, monospace">:</text>
    <text x="66" y="44" fill="#F59E0B" font-size="12" font-family="ui-monospace, monospace">8421</text>
    <text x="98" y="44" fill="#A8AAB5" font-size="12" font-family="ui-monospace, monospace">,</text>
    <text x="26" y="62" fill="#5B6BFF" font-size="12" font-family="ui-monospace, monospace" font-weight="700">"status"</text>
    <text x="80" y="62" fill="#A8AAB5" font-size="12" font-family="ui-monospace, monospace">:</text>
    <text x="88" y="62" fill="#22C55E" font-size="12" font-family="ui-monospace, monospace">"created"</text>
    <text x="148" y="62" fill="#A8AAB5" font-size="12" font-family="ui-monospace, monospace">,</text>
    <text x="26" y="80" fill="#5B6BFF" font-size="12" font-family="ui-monospace, monospace" font-weight="700">"total"</text>
    <text x="68" y="80" fill="#A8AAB5" font-size="12" font-family="ui-monospace, monospace">:</text>
    <text x="76" y="80" fill="#F59E0B" font-size="12" font-family="ui-monospace, monospace">129000</text>
    <text x="124" y="80" fill="#A8AAB5" font-size="12" font-family="ui-monospace, monospace">,</text>
    <text x="26" y="98" fill="#5B6BFF" font-size="12" font-family="ui-monospace, monospace" font-weight="700">"items"</text>
    <text x="70" y="98" fill="#A8AAB5" font-size="12" font-family="ui-monospace, monospace">: [</text>
    <text x="38" y="116" fill="#E6E6EA" font-size="12" font-family="ui-monospace, monospace">{</text>
    <text x="50" y="134" fill="#5B6BFF" font-size="12" font-family="ui-monospace, monospace" font-weight="700">"sku"</text>
    <text x="84" y="134" fill="#A8AAB5" font-size="12" font-family="ui-monospace, monospace">:</text>
    <text x="92" y="134" fill="#22C55E" font-size="12" font-family="ui-monospace, monospace">"NV-001"</text>
    <text x="38" y="152" fill="#E6E6EA" font-size="12" font-family="ui-monospace, monospace">}</text>
    <text x="26" y="170" fill="#A8AAB5" font-size="12" font-family="ui-monospace, monospace">]</text>
  </g>
</svg>
