<svg xmlns="http://www.w3.org/2000/svg" width="360" height="760" viewBox="0 0 360 760" font-family="-apple-system, system-ui, 'Segoe UI', sans-serif">
  <defs>
    <linearGradient id="bg" x1="0" y1="0" x2="0" y2="1">
      <stop offset="0%" stop-color="#16171B"/>
      <stop offset="100%" stop-color="#0F1014"/>
    </linearGradient>
  </defs>
  <rect width="360" height="760" fill="url(#bg)"/>

  <!-- Status bar -->
  <text x="22" y="22" fill="#E6E6EA" font-size="12" font-weight="600">9:41</text>
  <circle cx="320" cy="18" r="3" fill="#E6E6EA"/>
  <rect x="328" y="14" width="18" height="9" rx="2" fill="none" stroke="#E6E6EA"/>

  <!-- App bar -->
  <rect x="0" y="40" width="360" height="56" fill="transparent"/>
  <text x="20" y="74" fill="#F2F2F4" font-size="20" font-weight="700">Samseer</text>
  <g transform="translate(280, 56)">
    <rect width="32" height="32" rx="16" fill="#22232A"/>
    <path d="M 11 11 v 10 M 16 13 v 8 M 21 9 v 12" stroke="#A8AAB5" stroke-width="2" stroke-linecap="round"/>
  </g>
  <g transform="translate(316, 56)">
    <circle cx="6" cy="8" r="1.6" fill="#A8AAB5"/>
    <circle cx="6" cy="16" r="1.6" fill="#A8AAB5"/>
    <circle cx="6" cy="24" r="1.6" fill="#A8AAB5"/>
  </g>

  <!-- Search bar -->
  <rect x="12" y="100" width="336" height="40" rx="12" fill="#22232A"/>
  <circle cx="32" cy="120" r="6" fill="none" stroke="#7C7E8A" stroke-width="1.7"/>
  <line x1="36" y1="124" x2="40" y2="128" stroke="#7C7E8A" stroke-width="1.7" stroke-linecap="round"/>
  <text x="50" y="124" fill="#7C7E8A" font-size="13">Search by URL, method, status…</text>

  <!-- Filter chips -->
  <g transform="translate(12, 152)">
    <rect width="44" height="30" rx="15" fill="#5B6BFF"/>
    <text x="22" y="20" fill="#FFFFFF" font-size="12" font-weight="600" text-anchor="middle">All</text>
    <rect x="50" width="44" height="30" rx="15" fill="#22232A"/>
    <text x="72" y="20" fill="#A8AAB5" font-size="12" font-weight="600" text-anchor="middle">2xx</text>
    <rect x="100" width="44" height="30" rx="15" fill="#22232A"/>
    <text x="122" y="20" fill="#A8AAB5" font-size="12" font-weight="600" text-anchor="middle">3xx</text>
    <rect x="150" width="44" height="30" rx="15" fill="#22232A"/>
    <text x="172" y="20" fill="#A8AAB5" font-size="12" font-weight="600" text-anchor="middle">4xx</text>
    <rect x="200" width="44" height="30" rx="15" fill="#22232A"/>
    <text x="222" y="20" fill="#A8AAB5" font-size="12" font-weight="600" text-anchor="middle">5xx</text>
    <rect x="250" width="60" height="30" rx="15" fill="#22232A"/>
    <text x="280" y="20" fill="#A8AAB5" font-size="12" font-weight="600" text-anchor="middle">Errors</text>
  </g>

  <!-- Call tile 1 (success) -->
  <g transform="translate(12, 200)">
    <rect width="336" height="92" rx="14" fill="#1B1C22"/>
    <rect x="14" y="14" width="44" height="22" rx="6" fill="rgba(34,197,94,0.18)"/>
    <text x="36" y="29" fill="#22C55E" font-size="11" font-weight="700" text-anchor="middle">GET</text>
    <rect x="64" y="14" width="36" height="22" rx="6" fill="rgba(34,197,94,0.16)" stroke="rgba(34,197,94,0.4)"/>
    <text x="82" y="29" fill="#22C55E" font-size="12" font-weight="700" text-anchor="middle">200</text>
    <text x="306" y="29" fill="#7C7E8A" font-size="11" text-anchor="end">10:42:17</text>
    <text x="14" y="56" fill="#F2F2F4" font-size="14" font-weight="600">/api/v1/products</text>
    <text x="14" y="71" fill="#7C7E8A" font-size="11">api.example.com</text>
    <rect x="14" y="78" width="56" height="18" rx="6" fill="#22232A"/>
    <text x="42" y="91" fill="#A8AAB5" font-size="10" text-anchor="middle">⏱ 142ms</text>
    <rect x="74" y="78" width="68" height="18" rx="6" fill="#22232A"/>
    <text x="108" y="91" fill="#A8AAB5" font-size="10" text-anchor="middle">⬇ 4.2 KB</text>
    <rect x="146" y="78" width="38" height="18" rx="6" fill="#22232A"/>
    <text x="165" y="91" fill="#A8AAB5" font-size="10" text-anchor="middle">Dio</text>
  </g>

  <!-- Call tile 2 (success POST) -->
  <g transform="translate(12, 300)">
    <rect width="336" height="92" rx="14" fill="#1B1C22"/>
    <rect x="14" y="14" width="50" height="22" rx="6" fill="rgba(59,130,246,0.18)"/>
    <text x="39" y="29" fill="#3B82F6" font-size="11" font-weight="700" text-anchor="middle">POST</text>
    <rect x="70" y="14" width="36" height="22" rx="6" fill="rgba(34,197,94,0.16)" stroke="rgba(34,197,94,0.4)"/>
    <text x="88" y="29" fill="#22C55E" font-size="12" font-weight="700" text-anchor="middle">201</text>
    <text x="306" y="29" fill="#7C7E8A" font-size="11" text-anchor="end">10:42:09</text>
    <text x="14" y="56" fill="#F2F2F4" font-size="14" font-weight="600">/api/v1/orders</text>
    <text x="14" y="71" fill="#7C7E8A" font-size="11">api.example.com</text>
    <rect x="14" y="78" width="56" height="18" rx="6" fill="#22232A"/>
    <text x="42" y="91" fill="#A8AAB5" font-size="10" text-anchor="middle">⏱ 287ms</text>
    <rect x="74" y="78" width="68" height="18" rx="6" fill="#22232A"/>
    <text x="108" y="91" fill="#A8AAB5" font-size="10" text-anchor="middle">⬇ 1.1 KB</text>
    <rect x="146" y="78" width="38" height="18" rx="6" fill="#22232A"/>
    <text x="165" y="91" fill="#A8AAB5" font-size="10" text-anchor="middle">Dio</text>
  </g>

  <!-- Call tile 3 (404) -->
  <g transform="translate(12, 400)">
    <rect width="336" height="92" rx="14" fill="#1B1C22"/>
    <rect x="14" y="14" width="44" height="22" rx="6" fill="rgba(34,197,94,0.18)"/>
    <text x="36" y="29" fill="#22C55E" font-size="11" font-weight="700" text-anchor="middle">GET</text>
    <rect x="64" y="14" width="36" height="22" rx="6" fill="rgba(245,158,11,0.16)" stroke="rgba(245,158,11,0.4)"/>
    <text x="82" y="29" fill="#F59E0B" font-size="12" font-weight="700" text-anchor="middle">404</text>
    <text x="306" y="29" fill="#7C7E8A" font-size="11" text-anchor="end">10:41:55</text>
    <text x="14" y="56" fill="#F2F2F4" font-size="14" font-weight="600">/api/v1/users/9999</text>
    <text x="14" y="71" fill="#7C7E8A" font-size="11">api.example.com</text>
    <rect x="14" y="78" width="56" height="18" rx="6" fill="#22232A"/>
    <text x="42" y="91" fill="#A8AAB5" font-size="10" text-anchor="middle">⏱ 73ms</text>
    <rect x="74" y="78" width="68" height="18" rx="6" fill="#22232A"/>
    <text x="108" y="91" fill="#A8AAB5" font-size="10" text-anchor="middle">⬇ 218 B</text>
    <rect x="146" y="78" width="48" height="18" rx="6" fill="#22232A"/>
    <text x="170" y="91" fill="#A8AAB5" font-size="10" text-anchor="middle">http</text>
  </g>

  <!-- Call tile 4 (500) -->
  <g transform="translate(12, 500)">
    <rect width="336" height="92" rx="14" fill="#1B1C22"/>
    <rect x="14" y="14" width="60" height="22" rx="6" fill="rgba(245,158,11,0.18)"/>
    <text x="44" y="29" fill="#F59E0B" font-size="11" font-weight="700" text-anchor="middle">PATCH</text>
    <rect x="80" y="14" width="36" height="22" rx="6" fill="rgba(239,68,68,0.16)" stroke="rgba(239,68,68,0.4)"/>
    <text x="98" y="29" fill="#EF4444" font-size="12" font-weight="700" text-anchor="middle">500</text>
    <text x="306" y="29" fill="#7C7E8A" font-size="11" text-anchor="end">10:41:32</text>
    <text x="14" y="56" fill="#F2F2F4" font-size="14" font-weight="600">/api/v1/checkout</text>
    <text x="14" y="71" fill="#7C7E8A" font-size="11">api.example.com</text>
    <rect x="14" y="78" width="60" height="18" rx="6" fill="#22232A"/>
    <text x="44" y="91" fill="#A8AAB5" font-size="10" text-anchor="middle">⏱ 1.21s</text>
    <rect x="78" y="78" width="68" height="18" rx="6" fill="#22232A"/>
    <text x="112" y="91" fill="#A8AAB5" font-size="10" text-anchor="middle">⬇ 0.5 KB</text>
    <rect x="150" y="78" width="38" height="18" rx="6" fill="#22232A"/>
    <text x="169" y="91" fill="#A8AAB5" font-size="10" text-anchor="middle">Dio</text>
  </g>

  <!-- Call tile 5 (loading) -->
  <g transform="translate(12, 600)">
    <rect width="336" height="92" rx="14" fill="#1B1C22"/>
    <rect x="14" y="14" width="44" height="22" rx="6" fill="rgba(34,197,94,0.18)"/>
    <text x="36" y="29" fill="#22C55E" font-size="11" font-weight="700" text-anchor="middle">GET</text>
    <rect x="64" y="14" width="36" height="22" rx="6" fill="rgba(148,163,184,0.16)" stroke="rgba(148,163,184,0.4)"/>
    <text x="82" y="29" fill="#94A3B8" font-size="12" font-weight="700" text-anchor="middle">···</text>
    <text x="306" y="29" fill="#7C7E8A" font-size="11" text-anchor="end">10:41:30</text>
    <text x="14" y="56" fill="#F2F2F4" font-size="14" font-weight="600">/api/v1/feed</text>
    <text x="14" y="71" fill="#7C7E8A" font-size="11">api.example.com</text>
  </g>

  <!-- Floating bubble -->
  <g transform="translate(280, 700)">
    <rect width="64" height="32" rx="16" fill="#5B6BFF"/>
    <circle cx="16" cy="16" r="6" fill="none" stroke="#FFFFFF" stroke-width="1.7"/>
    <line x1="20" y1="20" x2="24" y2="24" stroke="#FFFFFF" stroke-width="1.7" stroke-linecap="round"/>
    <text x="44" y="20" fill="#FFFFFF" font-size="13" font-weight="700">12</text>
  </g>
</svg>
